<svg width="46" height="58" viewBox="0 0 46 58" fill="none" xmlns="http://www.w3.org/2000/svg">
<path d="M31.3369 26.0659L26.264 25.3263L23.9967 20.7291C23.5904 19.9096 22.4133 19.8992 22.0036 20.7291L19.7362 25.3263L14.6633 26.0659C13.7536 26.1978 13.389 27.3194 14.0487 27.9617L17.7189 31.5381L16.8508 36.5902C16.6946 37.5034 17.6564 38.1874 18.4619 37.7603L23.0001 35.3749L27.5383 37.7603C28.3439 38.184 29.3057 37.5034 29.1494 36.5902L28.2814 31.5381L31.9515 27.9617C32.6112 27.3194 32.2467 26.1978 31.3369 26.0659ZM26.4932 30.9548L27.3161 35.7603L23.0001 33.493L18.6842 35.7603L19.5071 30.9548L16.014 27.552L20.8404 26.8506L23.0001 22.4756L25.1598 26.8506L29.9862 27.552L26.4932 30.9548Z" fill="#484848"/>
</svg>
